<svg width="48" height="46" viewBox="0 0 48 46" fill="none" xmlns="http://www.w3.org/2000/svg">
<path d="M46.2 24C45.2064 24 44.4 24.8064 44.4 25.8V28.2H43.2V21C43.2 17.3592 40.2408 14.4 36.6 14.4H25.8V9.2424C27.5568 8.5296 28.8 6.8088 28.8 4.8C28.8 2.1528 26.6472 0 24 0C21.3528 0 19.2 2.1528 19.2 4.8C19.2 6.8088 20.4432 8.5296 22.2 9.2424V14.4H11.4C7.7592 14.4 4.8 17.3592 4.8 21V28.2H3.6V25.8C3.6 24.8064 2.7936 24 1.8 24C0.8064 24 0 24.8064 0 25.8V34.2C0 35.1936 0.8064 36 1.8 36C2.7936 36 3.6 35.1936 3.6 34.2V31.8H4.8V39C4.8 42.6408 7.7592 45.6 11.4 45.6H36.6C40.2408 45.6 43.2 42.6408 43.2 39V31.8H44.4V34.2C44.4 35.1936 45.2064 36 46.2 36C47.1936 36 48 35.1936 48 34.2V25.8C48 24.8064 47.1936 24 46.2 24ZM12 26.4C12 23.7528 14.1528 21.6 16.8 21.6C19.4472 21.6 21.6 23.7528 21.6 26.4C21.6 29.0472 19.4472 31.2 16.8 31.2C14.1528 31.2 12 29.0472 12 26.4ZM29.4 38.4H18.6C17.6064 38.4 16.8 37.5936 16.8 36.6C16.8 35.6064 17.6064 34.8 18.6 34.8H29.4C30.3936 34.8 31.2 35.6064 31.2 36.6C31.2 37.5936 30.3936 38.4 29.4 38.4ZM31.2 31.2C28.5528 31.2 26.4 29.0472 26.4 26.4C26.4 23.7528 28.5528 21.6 31.2 21.6C33.8472 21.6 36 23.7528 36 26.4C36 29.0472 33.8472 31.2 31.2 31.2Z" fill="#394159"/>
</svg>
